# xmcd
#
# Track frame offsets: 
#        150
#        6279
#        21542
#        37517
#        51729
#        65304
#        83154
#        96954
#        113304
#        152754
#        164229
#        179154
#        192204
#        207054
#        220404
#        233342
#        246654
#
# Disc length: 3509 seconds
#
# Revision: 0
# Processed by: cddbd v1.5.2PL0 Copyright (c) Steve Scherf et al.
# Submitted via: ExactAudioCopy v0.95b4
#
DISCID=eb0db311
DTITLE=Lokalka - Lokalka svet)(l)u vstric
DYEAR=2015
DGENRE=Folk
TTITLE0=Uvod - duvod
TTITLE1=Orlice
TTITLE2=Dva
TTITLE3=Medelak blues
TTITLE4=Troska jazzu
TTITLE5=Osado ach osado
TTITLE6=Vyznani citove vyprahle jalovice
TTITLE7=Galanecka
TTITLE8=Leta jdou
TTITLE9=Hospody
TTITLE10=Zahranicni student
TTITLE11=Krouzek
TTITLE12=Saratice
TTITLE13=Viagra
TTITLE14=Probuzeni
TTITLE15=Hrobky
TTITLE16=Franta Novak
EXTD=
EXTT0=
EXTT1=
EXTT2=
EXTT3=
EXTT4=
EXTT5=
EXTT6=
EXTT7=
EXTT8=
EXTT9=
EXTT10=
EXTT11=
EXTT12=
EXTT13=
EXTT14=
EXTT15=
EXTT16=
PLAYORDER=
